# Blender v2.80 (sub 75) OBJ File: 'scoany i podloga.blend'
# www.blender.org
mtllib floor.mtl
o Cube.001
v 2.200000 -0.250000 -2.800000
v 2.200000 -0.250000 2.800000
v -2.200000 -0.250000 -2.800000
v -2.200000 -0.250000 2.800000
v -2.200000 -0.090536 -2.800000
v -2.200000 -0.090536 2.800000
v 2.200000 -0.090536 -2.800000
v 2.200000 -0.090536 2.800000
vt 0.375000 1.000000
vt 0.625000 0.750000
vt 0.375000 0.750000
vt 0.625000 1.000000
vt 0.625000 1.000000
vt 0.375000 1.000000
vt 0.625000 0.750000
vt 0.375000 0.750000
vn 0.0000 1.0000 0.0000
vn 0.0000 0.0000 -1.0000
vn 1.0000 0.0000 0.0000
vn -1.0000 0.0000 0.0000
vn 0.0000 0.0000 1.0000
vn 0.0000 -1.0000 0.0000
usemtl Material
s off
f 4/1/1 1/2/1 3/3/1
f 4/1/2 8/4/2 2/5/2
f 3/3/3 6/6/3 4/1/3
f 2/5/4 7/7/4 1/2/4
f 1/2/5 5/8/5 3/3/5
f 4/1/1 2/5/1 1/2/1
f 4/1/2 6/6/2 8/4/2
f 3/3/3 5/8/3 6/6/3
f 2/5/4 8/4/4 7/7/4
f 1/2/5 7/7/5 5/8/5
usemtl Material.002
f 7/7/6 6/6/6 5/8/6
f 7/7/6 8/4/6 6/6/6
