# Blender v2.80 (sub 75) OBJ File: 'scoany i podloga.blend'
# www.blender.org
mtllib walls.mtl
o Cube
v 2.200000 2.450000 -2.800000
v 2.200000 -0.250000 -2.800000
v 2.200000 2.450000 2.800000
v 2.200000 -0.250000 2.800000
v -2.200000 2.450000 -2.800000
v -2.200000 -0.250000 -2.800000
v -2.200000 2.450000 2.800000
v -2.200000 -0.250000 2.800000
v 2.289621 -0.250000 -2.914063
v -2.200000 -0.250000 -2.961310
v 2.289621 2.450000 -2.914063
v -2.200000 -0.250000 2.961310
v -2.200000 2.450000 2.961310
v 2.289621 2.450000 2.914063
v 2.289621 -0.250000 2.914063
v -2.200000 2.450000 -2.961310
vt 0.625000 0.250000
vt 0.375000 0.500000
vt 0.375000 0.250000
vt 0.375000 0.500000
vt 0.125000 0.750000
vt 0.125000 0.500000
vt 0.875000 0.500000
vt 0.625000 0.750000
vt 0.625000 0.500000
vt 0.875000 0.750000
vt 0.875000 0.500000
vt 0.375000 0.750000
vt 0.375000 0.500000
vt 0.625000 0.500000
vt 0.375000 0.500000
vt 0.625000 0.500000
vt 0.625000 0.500000
vt 0.625000 0.750000
vt 0.125000 0.500000
vt 0.125000 0.750000
vt 0.375000 0.250000
vt 0.625000 0.250000
vt 0.375000 0.750000
vt 0.875000 0.750000
vn 0.0105 0.0000 0.9999
vn 1.0000 0.0000 0.0000
vn 0.0105 0.0000 -0.9999
vn 0.0000 1.0000 0.0000
vn -1.0000 0.0000 0.0000
vn 0.0000 -1.0000 0.0000
vn 0.0000 0.0000 -1.0000
vn 0.0000 0.0000 1.0000
usemtl Material
s off
f 14/1/1 12/2/1 15/3/1
f 11/4/2 15/5/2 9/6/2
f 16/7/3 9/8/3 10/9/3
f 1/10/4 16/7/4 5/11/4
f 3/12/4 11/4/4 1/13/4
f 5/11/5 10/9/5 6/14/5
f 8/15/5 13/16/5 7/17/5
f 2/18/6 10/9/6 9/8/6
f 2/19/6 15/5/6 4/20/6
f 4/21/6 12/2/6 8/15/6
f 3/22/4 13/16/4 14/1/4
f 14/1/1 13/16/1 12/2/1
f 11/4/2 14/23/2 15/5/2
f 16/7/3 11/24/3 9/8/3
f 1/10/4 11/24/4 16/7/4
f 3/12/4 14/23/4 11/4/4
f 5/11/5 16/7/5 10/9/5
f 8/15/5 12/2/5 13/16/5
f 2/18/6 6/14/6 10/9/6
f 2/19/6 9/6/6 15/5/6
f 4/21/6 15/3/6 12/2/6
f 3/22/4 7/17/4 13/16/4
usemtl Material.001
f 8/15/7 3/22/7 4/21/7
f 4/20/5 1/13/5 2/19/5
f 2/18/8 5/11/8 6/14/8
f 8/15/7 7/17/7 3/22/7
f 4/20/5 3/12/5 1/13/5
f 2/18/8 1/10/8 5/11/8
